<svg xmlns="http://www.w3.org/2000/svg" xmlns:xlink="http://www.w3.org/1999/xlink" id="Layer_1" viewBox="0 0 512.001 512.001" xml:space="preserve"><path style="fill:#FFC170;" d="M171.004,482.66c-39.121,39.121-102.547,39.121-141.663,0l0,0 c-39.121-39.117-39.121-102.543,0-141.663L340.997,29.341c39.121-39.121,102.547-39.121,141.663,0l0,0 c39.117,39.117,39.117,102.543,0,141.663L171.004,482.66z"></path><path style="fill:#FFAD41;" d="M482.661,29.341c-39.117-39.121-102.543-39.121-141.663,0l-84.997,84.997v283.327l226.66-226.662 C521.777,131.882,521.777,68.458,482.661,29.341z"></path><path style="fill:#FFD6A0;" d="M482.661,340.996c39.121,39.121,39.121,102.547,0,141.663l0,0 c-39.117,39.117-102.543,39.117-141.663,0L29.342,171.001c-39.121-39.117-39.121-102.543,0-141.659l0,0 c39.117-39.121,102.543-39.121,141.663,0L482.661,340.996z"></path><path style="fill:#FFC170;" d="M482.661,340.996L256,114.336v283.325l84.997,84.999c39.121,39.117,102.547,39.117,141.663,0 C521.781,443.543,521.781,380.117,482.661,340.996z"></path><rect x="195.892" y="155.827" transform="matrix(-0.7071 0.7071 -0.7071 -0.7071 618.0235 255.9987)" style="fill:#FF9811;" width="120.202" height="200.339"></rect></svg>